<svg xmlns="http://www.w3.org/2000/svg" viewBox="0 0 1200 630" width="1200" height="630">
  <defs>
    <linearGradient id="bg" x1="0" y1="0" x2="1" y2="1">
      <stop offset="0%" stop-color="#1a3a2a"/>
      <stop offset="100%" stop-color="#0d1f17"/>
    </linearGradient>
  </defs>
  <!-- Background -->
  <rect width="1200" height="630" fill="url(#bg)"/>
  <!-- Tree icon (scaled from favicon) -->
  <g transform="translate(500, 80) scale(8)">
    <rect x="14" y="20" width="4" height="8" rx="1" fill="#8B6914"/>
    <path d="M16 4C9.5 4 4 8.5 4 14c0 3.2 1.6 6 4 7.8V24l3-2c1.5.6 3.2 1 5 1 6.5 0 12-4.5 12-10S22.5 4 16 4z" fill="#2D8C3C"/>
    <circle cx="11" cy="13" r="1.5" fill="#fff" opacity="0.9"/>
    <circle cx="16" cy="13" r="1.5" fill="#fff" opacity="0.9"/>
    <circle cx="21" cy="13" r="1.5" fill="#fff" opacity="0.9"/>
  </g>
  <!-- Title -->
  <text x="600" y="420" text-anchor="middle" font-family="Georgia, serif" font-size="72" font-weight="bold" fill="#ffffff">ChatForest</text>
  <!-- Tagline -->
  <text x="600" y="480" text-anchor="middle" font-family="Arial, sans-serif" font-size="28" fill="#9fccb0">MCP Server Directory &amp; Reviews</text>
  <!-- URL -->
  <text x="600" y="560" text-anchor="middle" font-family="Arial, sans-serif" font-size="22" fill="#5a8a6a">chatforest.com</text>
</svg>
